{
.appVersion = "3091";
.formatVersion = 3;
DisplayStrings = (
"nb mn fd
cenhukijpjqjdjbjrj
dbpq pp pp
rf lk bjoörk",
"rutdrsprices
rtnrdpuaqdvewmdmnxzdyuznb 
omniscience reuter
guacamole
penuineore
the sin of the times
lady anjasoline
bnjqaline yearn
gasoline ag/a.ss01/g.ss01 t age nb
foli feel fiasco jufif jfifffjf ajjageg
consistency is gonoo hard
björk nnnanwnmnnpnqn google",
"alpha babs charlie dazed echo foxtrot golf hotel india jojo kick lima mickey 
nonvaember oscillator pipa quebec roma sierra 
tango united vivacious 
whiskey x-ray yarrow zulu kg  kick age nnum gen young",
"nanbncndnenfngnhninjnknlnmnn
nonpnqnrnsntnunvnwnxnynzn",
"aann abnn acnn adnn aenn afnn agnn ahnn ainn ajnn aknn alnn amnn annn
aonn apnn aqnn arnn asnn atnn aunn avnn awnn axnn aynn aznn
bann bbnn bcnn bdnn benn bfnn bgnn bhnn binn bjnn bknn blnn bmnn bnnn
bonn bpnn bqnn brnn bsnn btnn bunn bvnn bwnn bxnn bynn bznn
cann cbnn ccnn cdnn cenn cfnn cgnn chnn cinn cjnn cknn clnn cmnn cnnn
conn cpnn cqnn crnn csnn ctnn cunn cvnn cwnn cxnn cynn cznn
dann dbnn dcnn ddnn denn dfnn dgnn dhnn dinn djnn dknn dlnn dmnn dnnn
donn dpnn dqnn drnn dsnn dtnn dunn dvnn dwnn dxnn dynn dznn
eann ebnn ecnn ednn eenn efnn egnn ehnn einn ejnn eknn elnn emnn ennn
eonn epnn eqnn ernn esnn etnn eunn evnn ewnn exnn eynn eznn
fann fbnn fcnn fdnn fenn ffnn fgnn fhnn finn fjnn fknn flnn fmnn fnnn
fonn fpnn fqnn frnn fsnn ftnn funn fvnn fwnn fxnn fynn fznn
gann gbnn gcnn gdnn genn gfnn ggnn ghnn ginn gjnn gknn glnn gmnn gnnn
gonn gpnn gqnn grnn gsnn gtnn gunn gvnn gwnn gxnn gynn gznn
hann hbnn hcnn hdnn henn hfnn hgnn hhnn hinn hjnn hknn hlnn hmnn hnnn
honn hpnn hqnn hrnn hsnn htnn hunn hvnn hwnn hxnn hynn hznn
iann ibnn icnn idnn ienn ifnn ignn ihnn iinn ijnn iknn ilnn imnn innn
ionn ipnn iqnn irnn isnn itnn iunn ivnn iwnn ixnn iynn iznn
jann jbnn jcnn jdnn jenn jfnn jgnn jhnn jinn jjnn jknn jlnn jmnn jnnn
jonn jpnn jqnn jrnn jsnn jtnn junn jvnn jwnn jxnn jynn jznn

glyphs = (
{
glyphname = a;
lastChange = "2021-11-11 18:06:22 +0000";
layers = (
{
associatedMasterId = m01;
layerId = "DA6C233A-B83E-48D6-8C96-F48EBF7492A3";
name = "Skeleton Flat";
shapes = (
{
attr = {
strokeHeight = 28;
strokeWidth = 30;
};
closed = 0;
nodes = (
(75,540,l),
(116,570,o),
(184,594,o),
(254,594,cs),
(393,594,o),
(434,499,o),
(434,401,cs),
(434,0,l)
);
},
{
attr = {
strokeHeight = 28;
strokeWidth = 30;
};
closed = 0;
nodes = (
(434,96,l),
(434,253,o),
(344,394,o),
(198,394,cs),
(78,394,o),
(40,299,o),
(40,204,cs),
(40,86,o),
(99,6,o),
(239,6,cs),
(315,6,o),
(362,29,o),
(430,66,c)
);
}
);
width = 469;
},
{
hints = (
{
name = _corner.serifBottomRight;
origin = (0,15);
type = Corner;
}
);
layerId = m01;
name = Regular;
shapes = (
{
closed = 1;
nodes = (
(414,0,l),
(414,401,l),
(414,496,o),
(378,580,o),
(249,580,c),
(163,580,o),
(99,544,o),
(68,487,c),
(42,501,l),
(77,565,o),
(154,608,o),
(249,608,c),
(399,608,o),
(444,504,o),
(444,401,c),
(444,0,l)
);
},
{
closed = 1;
nodes = (
(432,56,l),
(364,19,o),
(314,-8,o),
(234,-8,c),
(84,-8,o),
(20,80,o),
(20,204,c),
(20,304,o),
(62,408,o),
(193,408,c),
(350,408,o),
(434,265,o),
(431,96,c),
(414,96,l),
(414,249,o),
(330,380,o),
(193,380,c),
(83,380,o),
(50,296,o),
(50,204,c),
(50,90,o),
(102,20,o),
(234,20,c),
(306,20,o),
(352,39,o),
(420,76,c)
);
}
);
width = 518;
},
{
associatedMasterId = m01;
layerId = "BE3E3D15-EEC9-4268-BBD1-3C893D13886F";
name = Skeleton;
shapes = (
{
attr = {
strokeHeight = 28;
strokeWidth = 30;
};
closed = 0;
nodes = (
(60,494,l),
(93,554,o),
(164,594,o),
(254,594,cs),
(393,594,o),
(434,499,o),
(434,401,cs),
(434,0,l)
);
},
{
attr = {
strokeHeight = 28;
strokeWidth = 30;
};
closed = 0;
nodes = (
(434,96,l),
(434,253,o),
(344,394,o),
(198,394,cs),
(78,394,o),
(40,299,o),
(40,204,cs),
(40,86,o),
(99,6,o),
(239,6,cs),
(315,6,o),
(362,29,o),
(430,66,c)
);
}
);
width = 469;
}
);
metricRight = n;
unicode = 97;
},
{
glyphname = b;
lastChange = "2021-11-09 07:28:32 +0000";
layers = (
{
hints = (
{
name = _corner.serifBottomLeft;
origin = (0,0);
type = Corner;
},
{
name = _corner.serifTopLeft;
origin = (0,1);
type = Corner;
}
);
layerId = m01;
shapes = (
{
closed = 1;
nodes = (
(74,0,l),
(74,800,l),
(104,800,l),
(104,0,l)
);
},
{
closed = 1;
nodes = (
(101,113,l),
(146,47,o),
(217,20,o),
(279,20,cs),
(392,20,o),
(459,113,o),
(459,312,cs),
(459,469,o),
(417,580,o),
(313,580,cs),
(170,580,o),
(104,373,o),
(104,217,c),
(83,217,l),
(95,392,o),
(146,608,o),
(313,608,cs),
(440,608,o),
(489,476,o),
(489,312,cs),
(489,103,o),
(410,-8,o),
(279,-8,cs),
(210,-8,o),
(132,24,o),
(87,97,c)
);
}
);
width = 519;
},
{
associatedMasterId = m01;
layerId = "3A03A1BC-D469-41A0-9382-233DB8A6C346";
name = Skeleton;
shapes = (
{
attr = {
strokeHeight = 28;
strokeWidth = 30;
};
closed = 0;
nodes = (
(35,800,l),
(35,0,l)
);
},
{
attr = {
strokeHeight = 28;
strokeWidth = 30;
};
closed = 0;
nodes = (
(35,589,l)
);
},
{
attr = {
strokeHeight = 28;
strokeWidth = 30;
};
closed = 0;
nodes = (
(35,217,l),
(35,375,o),
(115,594,o),
(269,594,cs),
(384,594,o),
(420,471,o),
(420,312,cs),
(420,109,o),
(346,6,o),
(225,6,cs),
(160,6,o),
(82,36,o),
(35,105,cs)
);
}
);
width = 455;
},
{
associatedMasterId = m01;
hints = (
{
name = _corner.serifBottomLeft;
origin = (0,0);
type = Corner;
},
{
name = _corner.serifTopLeft;
origin = (0,1);
type = Corner;
}
);
layerId = "F9D3FDD6-B2D6-40F4-A49E-3EBC4D467E0F";
name = Works;
shapes = (
{
closed = 1;
nodes = (
(74,0,l),
(74,800,l),
(104,800,l),
(104,0,l)
);
},
{
closed = 1;
nodes = (
(101,113,l),
(146,47,o),
(217,20,o),
(279,20,c),
(392,20,o),
(459,113,o),
(459,312,c),
(459,469,o),
(417,580,o),
(313,580,c),
(170,580,o),
(104,373,o),
(104,217,c),
(83,217,l),
(95,392,o),
(146,608,o),
(313,608,c),
(440,608,o),
(489,476,o),
(489,312,c),
(489,103,o),
(410,-8,o),
(279,-8,c),
(210,-8,o),
(132,24,o),
(87,97,c)
);
}
);
width = 519;
}
);
metricLeft = n;
unicode = 98;
},
{
glyphname = c;
lastChange = "2021-11-11 18:43:13 +0000";
layers = (
{
hints = (
{
name = _corner.serifTopLeft;
origin = (0,24);
type = Corner;
}
);
layerId = m01;
shapes = (
{
closed = 1;
nodes = (
(408,541,o),
(361,608,o),
(258,608,c),
(78,608,o),
(20,411,o),
(20,271,c),
(20,58,o),
(153,-8,o),
(258,-8,c),
(326,-8,o),
(408,20,o),
(452,112,c),
(426,124,l),
(386,43,o),
(319,20,o),
(258,20,c),
(163,20,o),
(50,76,o),
(50,271,c),
(50,406,o),
(102,580,o),
(258,580,c),
(346,580,o),
(386,526,o),
(417,488,c),
(439,503,l)
);
}
);
width = 472;
},
{
associatedMasterId = m01;
layerId = "3E53F4AC-3689-4389-B582-4F95BEDBD69E";
name = Skeleton;
shapes = (
{
attr = {
strokeHeight = 28;
strokeWidth = 30;
};
closed = 0;
nodes = (
(444,118,l),
(402,32,o),
(327,6,o),
(263,6,cs),
(164,6,o),
(40,68,o),
(40,271,cs),
(40,408,o),
(96,594,o),
(263,594,cs),
(358,594,o),
(411,535,o),
(436,463,cs)
);
}
);
width = 482;
}
);
metricLeft = o;
metricRight = o;
unicode = 99;
},
{
glyphname = d;
lastChange = "2021-11-10 07:42:39 +0000";
layers = (
{
hints = (
{
name = _corner.serifBottomLeft;
options = 1;
origin = (0,2);
scale = (-1,1);
type = Corner;
},
{
name = _corner.serifTopLeft;
origin = (0,0);
type = Corner;
}
);
layerId = m01;
shapes = (
{
closed = 1;
nodes = (
(415,800,l),
(445,800,l),
(445,0,l),
(415,0,l)
);
},
{
closed = 1;
nodes = (
(418,487,l),
(373,553,o),
(302,580,o),
(240,580,cs),
(127,580,o),
(60,487,o),
(60,288,cs),
(60,131,o),
(102,20,o),
(206,20,cs),
(349,20,o),
(415,227,o),
(415,383,c),
(436,383,l),
(424,208,o),
(373,-8,o),
(206,-8,cs),
(79,-8,o),
(30,124,o),
(30,288,cs),
(30,497,o),
(109,608,o),
(240,608,cs),
(309,608,o),
(387,576,o),
(432,503,c)
);
}
);
width = 519;
}
);
metricRight = n;
unicode = 100;
},
{
glyphname = e;
lastChange = "2021-11-11 20:25:37 +0000";
layers = (
{
associatedMasterId = m01;
layerId = "8D6E32E5-40B5-4EB3-BC67-624749C1F50E";
name = "NG Slanted Skeleton";
shapes = (
{
attr = {
strokeHeight = 28;
strokeWidth = 30;
};
closed = 0;
nodes = (
(70,251,l),
(431,251,l),
(448,288,o),
(456,337,o),
(455,393,cs),
(453,501,o),
(406,594,o),
(284,594,cs),
(140,594,o),
(60,413,o),
(60,256,cs),
(60,78,o),
(161,11,o),
(277,11,cs),
(341,11,o),
(416,40,o),
(469,152,c)
);
}
);
width = 600;
},
{
associatedMasterId = m01;
layerId = "1B7D4129-AC24-4A30-BCA4-EF2A6930ADFE";
name = "Heavy Skeleton";
shapes = (
{
attr = {
strokeHeight = 28;
strokeWidth = 30;
};
closed = 0;
nodes = (
(50,271,l),
(455,271,l),
(466,386,o),
(427,594,o),
(256,594,cs),
(96,594,o),
(40,411,o),
(40,271,cs),
(40,68,o),
(154,6,o),
(256,6,cs),
(322,6,o),
(402,32,o),
(444,118,c)
);
}
);
width = 496;
},
{
layerId = m01;
name = Regular;
shapes = (
{
closed = 1;
nodes = (
(386,43,o),
(319,20,o),
(258,20,c),
(163,20,o),
(50,76,o),
(50,271,c),
(50,409,o),
(102,580,o),
(258,580,c),
(404,580,o),
(443,427,o),
(436,315,c),
(45,315,l),
(45,287,l),
(463,287,l),
(479,405,o),
(441,608,o),
(258,608,c),
(78,608,o),
(20,414,o),
(20,271,c),
(20,58,o),
(153,-8,o),
(258,-8,c),
(326,-8,o),
(408,20,o),
(452,112,c),
(426,124,l)
);
}
);
width = 486;
},
{
associatedMasterId = m01;
layerId = "1740CD54-4541-4E48-A914-344904266325";
name = "Regular Skeleton";
shapes = (
{
attr = {
strokeHeight = 28;
strokeWidth = 30;
};
closed = 0;
nodes = (
(50,301,l),
(455,301,l),
(466,416,o),
(427,594,o),
(263,594,cs),
(96,594,o),
(40,411,o),
(40,271,cs),
(40,68,o),
(164,6,o),
(263,6,cs),
(327,6,o),
(402,32,o),
(444,118,c)
);
}
);
width = 496;
}
);
metricLeft = o;
metricRight = o;
unicode = 101;
},
{
glyphname = f;
lastChange = "2021-11-11 20:30:05 +0000";
layers = (
{
hints = (
{
name = _corner.serifBottomLeft;
origin = (1,8);
type = Corner;
},
{
name = _corner.serifBottomRight;
origin = (1,7);
type = Corner;
},
{
name = _corner.serifBottomLeft;
origin = (1,8);
type = Corner;
},
{
name = _corner.serifBottomLeft;
origin = (1,0);
type = Corner;
}
);
layerId = m01;
shapes = (
{
closed = 1;
nodes = (
(210,456,l),
(25,456,l),
(25,484,l),
(210,484,l)
);
},
{
closed = 1;
nodes = (
(335,746,l),
(312,767,o),
(284,780,o),
(248,780,cs),
(123,780,o),
(109,643,o),
(109,470,cs),
(109,0,l),
(79,0,l),
(79,470,ls),
(79,652,o),
(103,808,o),
(248,808,cs),
(292,808,o),
(326,792,o),
(349,769,c)
);
}
);
width = 289;
},
{
associatedMasterId = m01;
hints = (
{
name = _corner.serifBottomLeft;
origin = (1,8);
type = Corner;
},
{
name = _corner.serifBottomRight;
origin = (1,7);
type = Corner;
},
{
name = _corner.serifBottomLeft;
origin = (1,8);
type = Corner;
},
{
name = _corner.serifBottomLeft;
origin = (1,0);
type = Corner;
}
);
layerId = "27B5CD3F-ED46-47F5-B24E-93AF86077DBA";
name = Maybe;
shapes = (
{
closed = 1;
nodes = (
(205,456,l),
(20,456,l),
(20,484,l),
(205,484,l)
);
},
{
closed = 1;
nodes = (
(330,746,l),
(307,767,o),
(279,780,o),
(243,780,cs),
(118,780,o),
(104,643,o),
(104,470,cs),
(104,0,l),
(74,0,l),
(74,470,ls),
(74,652,o),
(98,808,o),
(243,808,cs),
(287,808,o),
(321,792,o),
(344,769,c)
);
}
);
width = 329;
}
);
metricLeft = "=n+5";
unicode = 102;
},
{
glyphname = g;
lastChange = "2021-11-11 20:35:44 +0000";
layers = (
{
hints = (
{
name = _corner.serifBottomLeft;
options = 1;
origin = (3,0);
scale = (1.1,1);
type = Corner;
},
{
name = _corner.serifBottomRight;
origin = (3,3);
scale = (0.8,1);
type = Corner;
}
);
layerId = m01;
name = Regular;
shapes = (
{
closed = 1;
nodes = (
(139,237,o),
(70,304,o),
(70,401,cs),
(70,505,o),
(149,580,o),
(249,580,cs),
(351,580,o),
(430,505,o),
(430,401,cs),
(430,304,o),
(361,237,o),
(249,237,cs)
);
},
{
closed = 1;
nodes = (
(375,209,o),
(460,290,o),
(460,401,cs),
(460,519,o),
(365,608,o),
(249,608,cs),
(135,608,o),
(40,519,o),
(40,401,cs),
(40,290,o),
(125,209,o),
(249,209,cs)
);
},
{
closed = 1;
nodes = (
(72,99,o),
(20,51,o),
(20,-27,cs),
(20,-160,o),
(166,-208,o),
(270,-208,cs),
(373,-208,o),
(446,-176,o),
(489,-121,cs),
(550,-41,o),
(539,67,o),
(470,111,cs),
(401,154,o),
(333,103,o),
(234,103,cs),
(128,103,o),
(54,145,o),
(104,209,cs),
(129,241,l),
(105,259,l),
(80,227,ls),
(10,136,o),
(117,75,o),
(234,75,cs),
(345,75,o),
(401,121,o),
(454,87,cs),
(509,52,o),
(518,-35,o),
(465,-103,cs),
(427,-153,o),
(366,-180,o),
(270,-180,cs),
(173,-180,o),
(50,-139,o),
(50,-27,cs),
(50,39,o),
(92,78,o),
(125,100,c),
(109,124,l)
);
},
{
closed = 1;
nodes = (
(419,660,l),
(351,570,l),
(363,549,l),
(452,660,l)
);
}
);
width = 519;
},
{
associatedMasterId = m01;
layerId = "1E5419C8-46DC-4B6E-82DF-73AF31226206";
name = "Top-Heavy Skeleton";
shapes = (
{
attr = {
strokeHeight = 28;
strokeWidth = 30;
};
closed = 1;
nodes = (
(423,116,o),
(512,213,o),
(512,345,cs),
(512,487,o),
(413,594,o),
(291,594,cs),
(169,594,o),
(70,487,o),
(70,345,cs),
(70,213,o),
(159,116,o),
(291,116,cs)
);
},
{
attr = {
strokeHeight = 28;
strokeWidth = 30;
};
closed = 0;
nodes = (
(164,147,l),
(133,92,ls),
(79,-4,o),
(231,-2,o),
(269,0,cs),
(396,7,o),
(486,81,o),
(534,8,cs),
(590,-78,o),
(468,-194,o),
(295,-194,cs),
(198,-194,o),
(112,-158,o),
(112,-88,cs),
(112,-54,o),
(132,-24,o),
(169,8,cs)
);
},
{
attr = {
strokeHeight = 28;
strokeWidth = 30;
};
closed = 0;
nodes = (
(446,527,l),
(494,527,o),
(523,584,o),
(523,655,cs)
);
}
);
width = 600;
},
{
associatedMasterId = m01;
layerId = "7D6F720D-FB38-416F-9B66-4F1B24679537";
name = "Regular Double-Layer Skeleton";
shapes = (
{
attr = {
strokeHeight = 28;
strokeWidth = 30;
};
closed = 1;
nodes = (
(393,223,o),
(482,298,o),
(482,401,cs),
(482,511,o),
(383,594,o),
(261,594,cs),
(139,594,o),
(40,511,o),
(40,401,cs),
(40,298,o),
(129,223,o),
(261,223,cs)
);
},
{
attr = {
strokeHeight = 28;
strokeWidth = 30;
};
closed = 0;
nodes = (
(122,249,l),
(97,218,ls),
(35,142,o),
(129,89,o),
(239,89,cs),
(343,89,o),
(407,137,o),
(467,99,cs),
(528,60,o),
(538,-39,o),
(482,-112,cs),
(442,-164,o),
(374,-194,o),
(275,-194,cs),
(175,-194,o),
(40,-149,o),
(40,-27,cs),
(40,45,o),
(87,89,o),
(122,112,cs)
);
},
{
attr = {
strokeHeight = 28;
strokeWidth = 30;
};
closed = 0;
nodes = (
(410,547,l),
(458,547,o),
(493,584,o),
(493,655,cs)
);
}
);
width = 560;
},
{
associatedMasterId = m01;
layerId = "2964C11E-FCA6-4EA0-AC08-1C6C088806D3";
name = "Wide-Bottom Double-Layer Skeleton";
shapes = (
{
attr = {
strokeHeight = 28;
strokeWidth = 30;
};
closed = 1;
nodes = (
(387,223,o),
(465,298,o),
(465,401,cs),
(465,511,o),
(377,594,o),
(269,594,cs),
(163,594,o),
(75,511,o),
(75,401,cs),
(75,298,o),
(153,223,o),
(269,223,cs)
);
},
{
attr = {
strokeHeight = 28;
strokeWidth = 30;
};
closed = 0;
nodes = (
(137,250,l),
(112,218,ls),
(52,141,o),
(144,89,o),
(254,89,cs),
(358,89,o),
(422,137,o),
(482,99,cs),
(543,60,o),
(553,-39,o),
(497,-112,cs),
(457,-164,o),
(389,-194,o),
(290,-194,cs),
(190,-194,o),
(55,-149,o),
(55,-27,cs),
(55,45,o),
(102,89,o),
(137,112,cs)
);
},
{
attr = {
strokeHeight = 28;
strokeWidth = 30;
};
closed = 0;
nodes = (
(402,547,l),
(449,548,o),
(485,584,o),
(485,655,cs)
);
}
);
width = 564;
},
{
associatedMasterId = m01;
layerId = "D0AE8B11-B6A0-4C41-85DF-77D9C5505DD7";
name = "Wide-Bottom Double-Layer Alt. Skeleton";
shapes = (
{
attr = {
strokeHeight = 28;
strokeWidth = 30;
};
closed = 1;
nodes = (
(387,223,o),
(465,298,o),
(465,401,cs),
(465,511,o),
(377,594,o),
(269,594,cs),
(163,594,o),
(75,511,o),
(75,401,cs),
(75,298,o),
(153,223,o),
(269,223,cs)
);
},
{
attr = {
strokeHeight = 28;
strokeWidth = 30;
};
closed = 0;
nodes = (
(137,250,l),
(112,218,ls),
(52,141,o),
(144,89,o),
(254,89,cs),
(358,89,o),
(422,137,o),
(482,99,cs),
(543,60,o),
(553,-39,o),
(497,-112,cs),
(457,-164,o),
(389,-194,o),
(290,-194,cs),
(190,-194,o),
(55,-149,o),
(55,-27,cs),
(55,45,o),
(102,89,o),
(137,112,cs)
);
},
{
attr = {
strokeHeight = 28;
strokeWidth = 30;
};
closed = 0;
nodes = (
(269,594,ls),
(269,665,o),
(305,701,o),
(352,702,c)
);
}
);
width = 559;
},
{
associatedMasterId = m01;
layerId = "0A3C5B2E-3BEB-4A58-9489-1A1C30C1F10A";
name = "Single-Story Skeleton";
shapes = (
{
attr = {
strokeHeight = 28;
strokeWidth = 30;
};
closed = 1;
nodes = (
(396,58,o),
(479,178,o),
(479,326,cs),
(479,485,o),
(385,594,o),
(268,594,cs),
(151,594,o),
(55,485,o),
(55,326,cs),
(55,178,o),
(140,58,o),
(268,58,cs)
);
},
{
attr = {
strokeHeight = 28;
strokeWidth = 30;
};
closed = 0;
nodes = (
(392,547,l),
(438,547,o),
(475,583,o),
(475,655,cs)
);
},
{
attr = {
strokeHeight = 28;
strokeWidth = 30;
};
closed = 0;
nodes = (
(479,326,l),
(479,290,o),
(479,87,o),
(479,30,cs),
(479,-100,o),
(381,-194,o),
(266,-194,cs),
(155,-194,o),
(92,-106,o),
(84,-49,cs)
);
}
);
width = 534;
},
{
associatedMasterId = m01;
layerId = "CACABC14-D5CD-42CA-B76D-A4435B9E72E4";
name = "Single-Story Fun Skeleton";
shapes = (
{
attr = {
strokeHeight = 28;
strokeWidth = 30;
};
closed = 0;
nodes = (
(466,229,l),
(438,129,o),
(367,58,o),
(268,58,cs),
(140,58,o),
(55,178,o),
(55,326,cs),
(55,485,o),
(151,594,o),
(268,594,cs),
(359,594,o),
(437,527,o),
(466,423,c),
(466,387,o),
(466,87,o),
(466,30,cs),
(466,-130,o),
(351,-194,o),
(257,-194,cs),
(147,-194,o),
(89,-106,o),
(81,-49,cs)
);
},
{
attr = {
strokeHeight = 28;
strokeWidth = 30;
};
closed = 0;
nodes = (
(388,554,l),
(434,554,o),
(471,590,o),
(471,662,cs)
);
}
);
width = 526;
},
{
associatedMasterId = m01;
layerId = "3AB3054B-CBC3-4F91-80F4-12BF39EF71AB";
name = "Single-Story Cut Skeleton";
shapes = (
{
attr = {
strokeHeight = 28;
strokeWidth = 30;
};
closed = 0;
nodes = (
(466,423,l),
(437,527,o),
(359,594,o),
(268,594,cs),
(151,594,o),
(55,485,o),
(55,326,cs),
(55,178,o),
(140,58,o),
(268,58,cs),
(367,58,o),
(438,129,o),
(466,229,c)
);
},
{
attr = {
strokeHeight = 28;
strokeWidth = 30;
};
closed = 0;
nodes = (
(467,600,l),
(467,564,o),
(467,87,o),
(467,30,cs),
(467,-130,o),
(352,-194,o),
(258,-194,cs),
(148,-194,o),
(90,-106,o),
(82,-49,cs)
);
}
);
width = 522;
},
{
associatedMasterId = m01;
layerId = "78C697C7-EDAD-44AA-B6F3-09996AAB2A11";
name = "Prev Comb Skeleton";
shapes = (
{
attr = {
strokeHeight = 28;
strokeWidth = 30;
};
closed = 0;
nodes = (
(430,600,l),
(430,564,o),
(430,56,o),
(430,-1,cs),
(430,-99,o),
(389,-194,o),
(250,-194,cs),
(160,-194,o),
(89,-154,o),
(56,-94,c)
);
},
{
closed = 1;
nodes = (
(418,487,l),
(373,553,o),
(302,580,o),
(240,580,cs),
(127,580,o),
(60,487,o),
(60,288,cs),
(60,131,o),
(102,20,o),
(206,20,cs),
(349,20,o),
(415,227,o),
(415,383,c),
(436,383,l),
(424,208,o),
(373,-8,o),
(206,-8,cs),
(79,-8,o),
(30,124,o),
(30,288,cs),
(30,497,o),
(109,608,o),
(240,608,cs),
(309,608,o),
(387,576,o),
(432,503,c)
);
}
);
width = 495;
}
);
metricLeft = a;
unicode = 103;
},
{
glyphname = h;
lastChange = "2021-07-29 17:27:57 +0000";
layers = (
{
hints = (
{
name = _corner.serifBottomLeft;
origin = (0,0);
type = Corner;
},
{
name = _corner.serifTopLeft;
origin = (0,1);
type = Corner;
},
{
name = _corner.serifBottomRight;
origin = (0,3);
type = Corner;
},
{
name = _corner.serifBottomLeft;
origin = (1,0);
type = Corner;
},
{
name = _corner.serifBottomRight;
origin = (1,15);
type = Corner;
}
);
layerId = m01;
shapes = (
{
closed = 1;
nodes = (
(74,0,l),
(74,800,l),
(104,800,l),
(104,0,l)
);
},
{
closed = 1;
nodes = (
(438,0,l),
(438,401,ls),
(438,496,o),
(405,580,o),
(313,580,cs),
(178,580,o),
(104,399,o),
(104,246,c),
(83,246,l),
(88,408,o),
(158,608,o),
(313,608,cs),
(426,608,o),
(468,504,o),
(468,401,cs),
(468,0,l)
);
}
);
width = 542;
}
);
metricLeft = n;
metricRight = n;
unicode = 104;
},
{
glyphname = i;
lastChange = "2021-11-09 07:35:54 +0000";
layers = (
{
hints = (
{
name = _corner.serifBottomLeft;
origin = (0,0);
type = Corner;
},
{
name = _corner.serifTopLeft;
origin = (0,1);
type = Corner;
},
{
name = _corner.serifBottomRight;
origin = (0,3);
type = Corner;
}
);
layerId = m01;
shapes = (
{
closed = 1;
nodes = (
(99,0,l),
(99,600,l),
(129,600,l),
(129,0,l)
);
},
{
closed = 1;
nodes = (
(129,720,o),
(148,738,o),
(148,760,cs),
(148,782,o),
(129,800,o),
(108,800,cs),
(87,800,o),
(68,782,o),
(68,760,cs),
(68,738,o),
(87,720,o),
(108,720,cs)
);
}
);
width = 228;
}
);
unicode = 105;
},
{
glyphname = j;
lastChange = "2021-11-11 20:31:41 +0000";
layers = (
{
hints = (
{
name = _corner.serifTopLeft;
origin = (0,7);
type = Corner;
}
);
layerId = m01;
shapes = (
{
closed = 1;
nodes = (
(-124,-79,l),
(-115,-130,o),
(-75,-165,o),
(-27,-165,cs),
(52,-165,o),
(120,-69,o),
(120,131,cs),
(120,600,l),
(150,600,l),
(150,131,ls),
(150,-79,o),
(71,-193,o),
(-27,-193,cs),
(-94,-193,o),
(-142,-140,o),
(-150,-83,c)
);
},
{
closed = 1;
nodes = (
(150,720,o),
(169,738,o),
(169,760,cs),
(169,782,o),
(150,800,o),
(129,800,cs),
(108,800,o),
(89,782,o),
(89,760,cs),
(89,738,o),
(108,720,o),
(129,720,cs)
);
}
);
width = 214;
},
{
associatedMasterId = m01;
layerId = "A6064F93-7CBA-4614-B8E0-DEB0829810B7";
name = Skeleton;
shapes = (
{
attr = {
strokeHeight = 28;
strokeWidth = 30;
};
closed = 0;
nodes = (
(193,600,l),
(193,487,o),
(193,219,o),
(193,91,cs),
(193,-72,o),
(129,-179,o),
(19,-179,cs),
(-45,-179,o),
(-75,-135,o),
(-85,-82,c)
);
},
{
closed = 1;
nodes = (
(208,820,o),
(227,838,o),
(227,860,cs),
(227,881,o),
(208,900,o),
(187,900,cs),
(166,900,o),
(147,881,o),
(147,860,cs),
(147,838,o),
(166,820,o),
(187,820,cs)
);
},
{
attr = {
strokeHeight = 28;
strokeWidth = 30;
};
closed = 0;
nodes = (
(-85,-82,l)
);
}
);
width = 272;
},
{
associatedMasterId = m01;
hints = (
{
name = _corner.serifTopLeft;
origin = (0,9);
type = Corner;
}
);
layerId = "21546A03-4A6C-43D4-8F58-0A58B1E8FA26";
name = "Roundy dot";
shapes = (
{
closed = 1;
nodes = (
(-70,-79,l),
(-61,-130,o),
(-36.775,-165,o),
(19,-165,cs),
(120.202,-165,o),
(178,-68.37,o),
(178,91,cs),
(178,219,o),
(178,487,o),
(178,600,c),
(208,600,l),
(208,487,o),
(208,219,o),
(208,91,cs),
(208,-77.63,o),
(139.798,-193,o),
(19,-193,cs),
(-54.625,-193,o),
(-88.998,-141.529,o),
(-99.74,-84.596,c)
);
},
{
closed = 1;
nodes = (
(208,720,o),
(227,738,o),
(227,760,cs),
(227,781,o),
(208,800,o),
(187,800,cs),
(166,800,o),
(147,781,o),
(147,760,cs),
(147,738,o),
(166,720,o),
(187,720,cs)
);
},
{
closed = 1;
nodes = (
(-82,-115,o),
(-101,-97,o),
(-101,-75,cs),
(-101,-54,o),
(-82,-35,o),
(-61,-35,cs),
(-40,-35,o),
(-21,-54,o),
(-21,-75,cs),
(-21,-97,o),
(-40,-115,o),
(-61,-115,cs)
);
}
);
width = 272;
}
);
metricRight = i;
unicode = 106;
},
{
glyphname = k;
lastChange = "2021-08-07 05:57:36 +0000";
layers = (
{
hints = (
{
name = _corner.serifBottomLeft;
origin = (0,0);
type = Corner;
},
{
name = _corner.serifTopLeft;
origin = (0,1);
type = Corner;
},
{
name = _corner.serifBottomRight;
origin = (0,3);
type = Corner;
},
{
name = _corner.serifBottomLeft;
options = 1;
origin = (2,0);
type = Corner;
},
{
name = _corner.serifBottomRight;
origin = (2,3);
type = Corner;
}
);
layerId = m01;
shapes = (
{
closed = 1;
nodes = (
(74,0,l),
(74,800,l),
(104,800,l),
(104,0,l)
);
},
{
closed = 1;
nodes = (
(97,186,l),
(130,156,o),
(177,131,o),
(233,131,cs),
(314,131,o),
(410,209,o),
(432,335,cs),
(453,453,o),
(399,580,o),
(295,580,cs),
(162,580,o),
(104,373,o),
(104,217,c),
(81,217,l),
(91,393,o),
(138,608,o),
(295,608,cs),
(425,608,o),
(480,461,o),
(460,335,cs),
(438,198,o),
(332,104,o),
(231,104,cs),
(171,104,o),
(125,127,o),
(87,164,c)
);
},
{
closed = 1;
nodes = (
(400,0,l),
(300,131,l),
(312,152,l),
(433,0,l)
);
}
);
width = 517;
},
{
associatedMasterId = m01;
hints = (
{
name = _corner.serifBottomLeft;
origin = (0,0);
type = Corner;
},
{
name = _corner.serifTopLeft;
origin = (0,1);
type = Corner;
},
{
name = _corner.serifBottomRight;
origin = (0,3);
type = Corner;
}
);
layerId = "A3B58F51-2664-4544-BEEA-CFEF81E0E4C5";
name = "Straight & Dumb";
shapes = (
{
closed = 1;
nodes = (
(99,0,l),
(99,800,l),
(129,800,l),
(129,0,l)
);
},
{
attr = {
strokeHeight = 28;
strokeWidth = 30;
};
closed = 0;
nodes = (
(115,233,l),
(420,600,l)
);
},
{
attr = {
strokeHeight = 28;
strokeWidth = 30;
};
closed = 0;
nodes = (
(181,316,l),
(452,0,l)
);
}
);
width = 600;
},
{
associatedMasterId = m01;
hints = (
{
name = _corner.serifBottomLeft;
origin = (0,0);
type = Corner;
},
{
name = _corner.serifTopLeft;
origin = (0,1);
type = Corner;
},
{
name = _corner.serifBottomRight;
origin = (0,3);
type = Corner;
}
);
layerId = "EC14E7CE-F26A-405D-806E-BB56BBED54D2";
name = High;
shapes = (
{
closed = 1;
nodes = (
(74,0,l),
(74,800,l),
(104,800,l),
(104,0,l)
);
},
{
closed = 1;
nodes = (
(92,253,l),
(130,236,o),
(167,221,o),
(209,221,cs),
(293,221,o),
(357,276,o),
(380,402,cs),
(394,480,o),
(387,580,o),
(283,580,cs),
(160,580,o),
(104,373,o),
(104,217,c),
(80,217,l),
(89,392,o),
(136,608,o),
(283,608,cs),
(410,608,o),
(422,487,o),
(408,402,cs),
(386,265,o),
(311,194,o),
(209,194,cs),
(160,194,o),
(126,213,o),
(88,230,c)
);
},
{
closed = 1;
nodes = (
(402,-11,l),
(253,213,l),
(277,229,l),
(426,5,l)
);
}
);
width = 451;
},
{
associatedMasterId = m01;
hints = (
{
name = _corner.serifBottomLeft;
origin = (0,0);
type = Corner;
},
{
name = _corner.serifTopLeft;
origin = (0,1);
type = Corner;
},
{
name = _corner.serifBottomRight;
origin = (0,3);
type = Corner;
}
);
layerId = "AB442546-58E5-4881-9A0D-8C120900AC9A";
name = Thin;
shapes = (
{
closed = 1;
nodes = (
(74,0,l),
(74,800,l),
(104,800,l),
(104,0,l)
);
},
{
closed = 1;
nodes = (
(97,176,l),
(130,146,o),
(167,131,o),
(203,131,cs),
(293,131,o),
(370,226,o),
(390,352,cs),
(409,470,o),
(373,580,o),
(283,580,cs),
(160,580,o),
(104,373,o),
(104,217,c),
(81,217,l),
(92,393,o),
(136,608,o),
(283,608,cs),
(396,608,o),
(436,478,o),
(418,352,cs),
(398,215,o),
(311,104,o),
(201,104,cs),
(160,104,o),
(127,119,o),
(89,156,c)
);
},
{
closed = 1;
nodes = (
(419,-8,l),
(220,109,l),
(232,130,l),
(433,16,l)
);
}
);
width = 485;
},
{
associatedMasterId = m01;
hints = (
{
name = _corner.serifBottomLeft;
origin = (0,0);
type = Corner;
},
{
name = _corner.serifTopLeft;
origin = (0,1);
type = Corner;
},
{
name = _corner.serifBottomRight;
origin = (0,3);
type = Corner;
}
);
layerId = "A45FF212-4515-4F9A-94F2-ED10917B5890";
name = Fat;
shapes = (
{
closed = 1;
nodes = (
(74,0,l),
(74,800,l),
(104,800,l),
(104,0,l)
);
},
{
closed = 1;
nodes = (
(97,186,l),
(130,156,o),
(177,131,o),
(223,131,cs),
(304,131,o),
(392,209,o),
(419,335,cs),
(444,453,o),
(407,580,o),
(303,580,cs),
(170,580,o),
(104,373,o),
(104,217,c),
(81,217,l),
(92,393,o),
(146,608,o),
(303,608,cs),
(433,608,o),
(471,461,o),
(447,335,cs),
(421,198,o),
(322,104,o),
(221,104,cs),
(171,104,o),
(125,127,o),
(87,164,c)
);
},
{
closed = 1;
nodes = (
(449,-8,l),
(281,119,l),
(293,140,l),
(463,16,l)
);
}
);
width = 493;
},
{
associatedMasterId = m01;
hints = (
{
name = _corner.serifBottomLeft;
origin = (0,0);
type = Corner;
},
{
name = _corner.serifTopLeft;
origin = (0,1);
type = Corner;
},
{
name = _corner.serifBottomRight;
origin = (0,3);
type = Corner;
}
);
layerId = "AFED30CC-0FFD-40A7-BE54-563BF6AD3C1B";
name = "Thicccc boi";
shapes = (
{
closed = 1;
nodes = (
(74,0,l),
(74,800,l),
(104,800,l),
(104,0,l)
);
},
{
closed = 1;
nodes = (
(97,186,l),
(130,156,o),
(177,131,o),
(233,131,cs),
(314,131,o),
(410,209,o),
(432,335,cs),
(453,453,o),
(399,580,o),
(295,580,cs),
(162,580,o),
(104,373,o),
(104,217,c),
(81,217,l),
(92,393,o),
(138,608,o),
(295,608,cs),
(425,608,o),
(480,461,o),
(460,335,cs),
(438,198,o),
(332,104,o),
(231,104,cs),
(171,104,o),
(125,127,o),
(87,164,c)
);
},
{
closed = 1;
nodes = (
(449,-8,l),
(281,119,l),
(293,140,l),
(463,16,l)
);
}
);
width = 494;
},
{
associatedMasterId = m01;
hints = (
{
name = _corner.serifBottomLeft;
origin = (0,0);
type = Corner;
},
{
name = _corner.serifTopLeft;
origin = (0,1);
type = Corner;
},
{
name = _corner.serifBottomRight;
origin = (0,3);
type = Corner;
},
{
name = _corner.serifBottomLeft;
options = 1;
origin = (2,0);
type = Corner;
},
{
name = _corner.serifBottomRight;
origin = (2,3);
type = Corner;
}
);
layerId = "CB899C7F-415B-40B1-8356-82D3A0AA7B21";
name = "Thicc boi just got fancy";
shapes = (
{
closed = 1;
nodes = (
(74,0,l),
(74,800,l),
(104,800,l),
(104,0,l)
);
},
{
closed = 1;
nodes = (
(97,186,l),
(130,156,o),
(177,131,o),
(233,131,cs),
(314,131,o),
(410,209,o),
(432,335,cs),
(453,453,o),
(399,580,o),
(295,580,cs),
(162,580,o),
(104,373,o),
(104,217,c),
(81,217,l),
(92,393,o),
(138,608,o),
(295,608,cs),
(425,608,o),
(480,461,o),
(460,335,cs),
(438,198,o),
(332,104,o),
(231,104,cs),
(171,104,o),
(125,127,o),
(87,164,c)
);
},
{
closed = 1;
nodes = (
(400,0,l),
(300,131,l),
(312,152,l),
(433,0,l)
);
}
);
width = 517;
}
);
metricLeft = n;
metricRight = b;
unicode = 107;
},
{
glyphname = l;
lastChange = "2021-07-31 03:44:31 +0000";
layers = (
{
hints = (
{
name = _corner.serifBottomLeft;
origin = (0,0);
type = Corner;
},
{
name = _corner.serifBottomRight;
origin = (0,3);
type = Corner;
},
{
name = _corner.serifTopLeft;
origin = (0,1);
type = Corner;
}
);
layerId = m01;
shapes = (
{
closed = 1;
nodes = (
(89,0,l),
(89,800,l),
(119,800,l),
(119,0,l)
);
}
);
width = 208;
}
);
unicode = 108;
},
{
glyphname = m;
lastChange = "2021-11-11 18:08:10 +0000";
layers = (
{
hints = (
{
name = _corner.serifBottomLeft;
origin = (0,0);
type = Corner;
},
{
name = _corner.serifTopLeft;
origin = (0,1);
type = Corner;
},
{
name = _corner.serifBottomRight;
origin = (0,3);
type = Corner;
},
{
name = _corner.serifBottomLeft;
origin = (1,0);
type = Corner;
},
{
name = _corner.serifBottomRight;
origin = (1,15);
type = Corner;
},
{
name = _corner.serifBottomLeft;
origin = (2,0);
type = Corner;
},
{
name = _corner.serifBottomRight;
origin = (2,15);
type = Corner;
}
);
layerId = m01;
shapes = (
{
closed = 1;
nodes = (
(74,0,l),
(74,600,l),
(104,600,l),
(104,0,l)
);
},
{
closed = 1;
nodes = (
(358,0,l),
(358,401,ls),
(358,496,o),
(335,580,o),
(270,580,cs),
(168,580,o),
(104,379,o),
(104,226,c),
(86,226,l),
(89,392,o),
(148,608,o),
(271,608,cs),
(356,608,o),
(388,504,o),
(388,401,cs),
(388,0,l)
);
},
{
closed = 1;
nodes = (
(642,-1,l),
(642,400,ls),
(642,495,o),
(619,579,o),
(554,579,cs),
(452,579,o),
(388,378,o),
(388,225,c),
(367,225,l),
(370,371,o),
(432,607,o),
(555,607,cs),
(640,607,o),
(672,503,o),
(672,400,cs),
(672,-1,l)
);
}
);
width = 746;
}
);
metricLeft = n;
metricRight = n;
unicode = 109;
},
{
glyphname = n;
lastChange = "2021-08-01 07:51:45 +0000";
layers = (
{
hints = (
{
name = _corner.serifBottomLeft;
origin = (0,0);
type = Corner;
},
{
name = _corner.serifBottomRight;
origin = (0,3);
type = Corner;
},
{
name = _corner.serifBottomRight;
origin = (1,15);
type = Corner;
},
{
name = _corner.serifBottomLeft;
origin = (1,0);
type = Corner;
},
{
name = _corner.serifTopLeft;
origin = (0,1);
type = Corner;
}
);
layerId = m01;
shapes = (
{
closed = 1;
nodes = (
(74,0,l),
(74,600,l),
(104,600,l),
(104,0,l)
);
},
{
closed = 1;
nodes = (
(438,0,l),
(438,401,ls),
(438,496,o),
(405,580,o),
(313,580,cs),
(178,580,o),
(104,399,o),
(104,246,c),
(83,246,l),
(86,412,o),
(158,608,o),
(313,608,cs),
(426,608,o),
(468,504,o),
(468,401,cs),
(468,0,l)
);
}
);
width = 542;
},
{
associatedMasterId = m01;
layerId = "6C85777C-2BC8-406A-B63E-7770A464FBB3";
name = Skeleton;
shapes = (
{
attr = {
strokeHeight = 28;
strokeWidth = 30;
};
closed = 0;
nodes = (
(60,600,l),
(60,0,l)
);
},
{
attr = {
strokeHeight = 28;
strokeWidth = 30;
};
closed = 0;
nodes = (
(60,286,l),
(60,443,o),
(150,594,o),
(304,594,cs),
(416,594,o),
(454,499,o),
(454,401,cs),
(454,0,l)
);
}
);
width = 514;
}
);
unicode = 110;
},
{
glyphname = o;
lastChange = "2021-11-11 20:36:03 +0000";
layers = (
{
associatedMasterId = m01;
layerId = "256ED525-EF52-40EA-A598-BC49B285460D";
name = "Skeleton thin";
shapes = (
{
attr = {
strokeHeight = 28;
strokeWidth = 30;
};
closed = 1;
nodes = (
(395,6,o),
(496,143,o),
(496,302,cs),
(496,459,o),
(395,594,o),
(268,594,cs),
(142,594,o),
(40,459,o),
(40,302,cs),
(40,144,o),
(142,6,o),
(268,6,cs)
);
}
);
width = 536;
},
{
layerId = m01;
name = Regular;
shapes = (
{
closed = 1;
nodes = (
(157,20,o),
(50,142,o),
(50,308,cs),
(50,473,o),
(157,586,o),
(329,586,cs),
(504,586,o),
(608,473,o),
(608,308,cs),
(608,141,o),
(501,20,o),
(329,20,cs)
);
},
{
closed = 1;
nodes = (
(517,-8,o),
(638,129,o),
(638,308,cs),
(638,485,o),
(517,614,o),
(329,614,cs),
(141,614,o),
(20,485,o),
(20,308,cs),
(20,130,o),
(141,-8,o),
(329,-8,cs)
);
}
);
width = 658;
},
{
associatedMasterId = m01;
layerId = "E31B90CE-1B5D-4DB4-B35A-8AAF80423967";
name = "Skeleton round";
shapes = (
{
attr = {
strokeHeight = 28;
strokeWidth = 30;
};
closed = 1;
nodes = (
(508,6,o),
(623,136,o),
(623,308,cs),
(623,478,o),
(508,600,o),
(329,600,cs),
(150,600,o),
(35,478,o),
(35,308,cs),
(35,137,o),
(150,6,o),
(329,6,cs)
);
}
);
width = 658;
}
);
unicode = 111;
},
{
glyphname = odieresis;
lastChange = "2021-11-11 20:22:38 +0000";
layers = (
{
layerId = m01;
shapes = (
{
closed = 1;
nodes = (
(250,720,o),
(269,738,o),
(269,760,cs),
(269,782,o),
(250,800,o),
(229,800,cs),
(208,800,o),
(189,782,o),
(189,760,cs),
(189,738,o),
(208,720,o),
(229,720,cs)
);
},
{
closed = 1;
nodes = (
(460,720,o),
(479,738,o),
(479,760,cs),
(479,782,o),
(460,800,o),
(439,800,cs),
(418,800,o),
(399,782,o),
(399,760,c),
(399,738,o),
(418,720,o),
(439,720,cs)
);
},
{
ref = o;
}
);
width = 658;
}
);
metricLeft = o;
metricRight = o;
unicode = 246;
},
{
glyphname = p;
lastChange = "2021-08-08 09:19:24 +0000";
layers = (
{
hints = (
{
name = _corner.serifBottomLeft;
origin = (0,0);
type = Corner;
},
{
name = _corner.serifTopLeft;
origin = (0,1);
type = Corner;
},
{
name = _corner.serifBottomRight;
origin = (0,3);
type = Corner;
}
);
layerId = m01;
shapes = (
{
closed = 1;
nodes = (
(74,-200,l),
(74,600,l),
(104,600,l),
(104,-200,l)
);
},
{
closed = 1;
nodes = (
(101,113,l),
(146,47,o),
(217,20,o),
(279,20,cs),
(392,20,o),
(459,113,o),
(459,312,cs),
(459,469,o),
(420,580,o),
(313,580,cs),
(170,580,o),
(104,373,o),
(104,217,c),
(83,217,l),
(95,392,o),
(146,608,o),
(313,608,cs),
(443,608,o),
(489,476,o),
(489,312,cs),
(489,103,o),
(410,-8,o),
(279,-8,cs),
(210,-8,o),
(132,24,o),
(87,97,c)
);
}
);
width = 519;
}
);
metricLeft = n;
metricRight = b;
unicode = 112;
},
{
glyphname = q;
lastChange = "2021-07-31 02:46:38 +0000";
layers = (
{
hints = (
{
name = _corner.serifBottomLeft;
options = 1;
origin = (0,2);
scale = (-1,1);
type = Corner;
},
{
name = _corner.serifTopLeft;
options = 1;
origin = (0,1);
scale = (-1,1);
type = Corner;
},
{
name = _corner.serifBottomRight;
options = 1;
origin = (0,3);
scale = (-1,1);
type = Corner;
}
);
layerId = m01;
shapes = (
{
closed = 1;
nodes = (
(415,600,l),
(445,600,l),
(445,-200,l),
(415,-200,l)
);
},
{
closed = 1;
nodes = (
(418,487,l),
(373,553,o),
(302,580,o),
(240,580,cs),
(127,580,o),
(60,487,o),
(60,288,cs),
(60,131,o),
(102,20,o),
(206,20,cs),
(349,20,o),
(415,227,o),
(415,383,c),
(436,383,l),
(424,208,o),
(373,-8,o),
(206,-8,cs),
(79,-8,o),
(30,124,o),
(30,288,cs),
(30,497,o),
(109,608,o),
(240,608,cs),
(309,608,o),
(387,576,o),
(432,503,c)
);
}
);
width = 519;
}
);
metricLeft = d;
metricRight = n;
unicode = 113;
},
{
glyphname = r;
lastChange = "2021-11-11 18:43:13 +0000";
layers = (
{
hints = (
{
name = _corner.serifBottomLeft;
origin = (0,0);
type = Corner;
},
{
name = _corner.serifTopLeft;
origin = (0,1);
type = Corner;
},
{
name = _corner.serifBottomRight;
origin = (0,3);
type = Corner;
}
);
layerId = m01;
shapes = (
{
closed = 1;
nodes = (
(74,0,l),
(74,600,l),
(104,600,l),
(104,0,l)
);
},
{
closed = 1;
nodes = (
(438,401,l),
(438,496,o),
(405,580,o),
(313,580,cs),
(178,580,o),
(104,399,o),
(104,246,c),
(83,246,l),
(88,408,o),
(158,608,o),
(313,608,cs),
(426,608,o),
(468,504,o),
(468,401,c)
);
}
);
width = 488;
},
{
associatedMasterId = m01;
hints = (
{
name = _corner.serifBottomLeft;
origin = (0,0);
type = Corner;
},
{
name = _corner.serifTopLeft;
origin = (0,1);
type = Corner;
},
{
name = _corner.serifBottomRight;
origin = (0,3);
type = Corner;
}
);
layerId = "A039A33F-B011-4D19-A922-52BDA235D0C2";
name = Goodenough;
shapes = (
{
closed = 1;
nodes = (
(74,0,l),
(74,600,l),
(104,600,l),
(104,0,l)
);
},
{
closed = 1;
nodes = (
(438,401,l),
(438,496,o),
(405,580,o),
(313,580,cs),
(178,580,o),
(104,399,o),
(104,246,c),
(83,246,l),
(88,408,o),
(158,608,o),
(313,608,cs),
(426,608,o),
(468,504,o),
(468,401,c)
);
}
);
width = 498;
}
);
metricLeft = n;
metricRight = o;
unicode = 114;
},
{
glyphname = s;
lastChange = "2021-11-11 18:43:13 +0000";
layers = (
{
layerId = m01;
shapes = (
{
attr = {
strokeHeight = 28;
strokeWidth = 30;
};
closed = 0;
nodes = (
(388,472,l),
(388,535,o),
(336,594,o),
(231,594,cs),
(136,594,o),
(50,546,o),
(50,440,cs),
(50,324,o),
(153,318,o),
(233,305,cs),
(305,293,o),
(418,267,o),
(418,157,cs),
(418,71,o),
(349,6,o),
(235,6,cs),
(123,6,o),
(35,71,o),
(35,170,cs)
);
}
);
width = 453;
},
{
associatedMasterId = m01;
layerId = "CBEB76C0-F75E-49ED-A5DC-559738E257ED";
name = "Skeleton ver 1";
shapes = (
{
attr = {
strokeHeight = 28;
strokeWidth = 30;
};
closed = 0;
nodes = (
(397,472,l),
(397,535,o),
(345,594,o),
(240,594,cs),
(145,594,o),
(59,546,o),
(59,440,cs),
(59,325,o),
(161,313,o),
(240,301,cs),
(316,289,o),
(440,266,o),
(440,157,cs),
(440,69,o),
(358,6,o),
(244,6,cs),
(132,6,o),
(35,61,o),
(35,160,cs)
);
}
);
width = 475;
}
);
metricLeft = o;
metricRight = n;
unicode = 115;
},
{
glyphname = t;
lastChange = "2021-11-11 20:34:05 +0000";
layers = (
{
layerId = m01;
shapes = (
{
closed = 1;
nodes = (
(343,45,o),
(295,-8,o),
(228,-8,cs),
(130,-8,o),
(91,106,o),
(91,256,cs),
(91,715,l),
(121,715,l),
(121,256,ls),
(121,116,o),
(149,20,o),
(228,20,cs),
(276,20,o),
(316,55,o),
(325,106,c),
(351,102,l)
);
},
{
closed = 1;
nodes = (
(316,572,l),
(20,572,l),
(20,600,l),
(316,600,l)
);
}
);
width = 361;
}
);
metricLeft = n;
unicode = 116;
},
{
glyphname = u;
lastChange = "2021-11-11 18:08:43 +0000";
layers = (
{
hints = (
{
name = _corner.serifTopLeft;
origin = (0,1);
scale = (-1,-1);
type = Corner;
},
{
name = _corner.serifBottomRight;
origin = (1,15);
scale = (-1,-1);
type = Corner;
}
);
layerId = m01;
shapes = (
{
closed = 1;
nodes = (
(468,600,l),
(468,0,l),
(438,0,l),
(438,600,l)
);
},
{
closed = 1;
nodes = (
(104,600,l),
(104,199,ls),
(104,104,o),
(137,20,o),
(229,20,cs),
(364,20,o),
(438,201,o),
(438,354,c),
(459,356,l),
(454,194,o),
(384,-8,o),
(229,-8,cs),
(116,-8,o),
(74,96,o),
(74,199,cs),
(74,600,l)
);
}
);
width = 542;
}
);
metricLeft = n;
metricRight = n;
unicode = 117;
},
{
glyphname = udieresis;
lastChange = "2021-11-09 09:10:28 +0000";
layers = (
{
layerId = m01;
shapes = (
{
ref = u;
},
{
closed = 1;
nodes = (
(182,720,o),
(201,738,o),
(201,760,cs),
(201,782,o),
(182,800,o),
(161,800,cs),
(140,800,o),
(121,782,o),
(121,760,cs),
(121,738,o),
(140,720,o),
(161,720,cs)
);
},
{
closed = 1;
nodes = (
(392,720,o),
(411,738,o),
(411,760,cs),
(411,782,o),
(392,800,o),
(371,800,cs),
(350,800,o),
(331,782,o),
(331,760,c),
(331,738,o),
(350,720,o),
(371,720,cs)
);
}
);
width = 542;
}
);
unicode = 252;
},
{
glyphname = v;
lastChange = "2021-11-11 18:04:21 +0000";
layers = (
{
associatedMasterId = m01;
layerId = "C6AC85C3-E184-44FE-9696-22BE079BA509";
name = Skeleton;
shapes = (
{
attr = {
lineCapEnd = 4;
lineCapStart = 4;
strokeHeight = 28;
strokeWidth = 30;
};
closed = 0;
nodes = (
(41,600,l),
(241,14,l),
(245,14,l),
(445,600,l)
);
}
);
width = 486;
},
{
hints = (
{
name = _corner.serifTopRight;
options = 1;
origin = (0,3);
scale = (0.8,1);
type = Corner;
},
{
name = _corner.serifTopRight;
options = 1;
origin = (0,7);
type = Corner;
},
{
name = _corner.serifTopLeft;
origin = (0,2);
type = Corner;
},
{
name = _corner.serifTopLeft;
origin = (0,6);
scale = (0.8,1);
type = Corner;
}
);
layerId = m01;
name = Regular;
shapes = (
{
closed = 1;
nodes = (
(262,28,l),
(272,28,l),
(85,600,l),
(53,600,l),
(254,0,l),
(280,0,l),
(481,600,l),
(449,600,l)
);
}
);
width = 534;
}
);
unicode = 118;
},
{
glyphname = w;
lastChange = "2021-11-11 17:20:32 +0000";
layers = (
{
hints = (
{
name = _corner.serifTopRight;
options = 1;
origin = (0,3);
scale = (0.9,1);
type = Corner;
},
{
name = _corner.serifTopLeft;
origin = (0,2);
type = Corner;
},
{
name = _corner.serifTopRight;
options = 1;
origin = (1,7);
type = Corner;
},
{
name = _corner.serifTopLeft;
origin = (1,6);
scale = (0.9,1);
type = Corner;
}
);
layerId = m01;
name = Regular;
shapes = (
{
closed = 1;
nodes = (
(171,28,l),
(185,28,l),
(101,600,l),
(69,600,l),
(165,0,l),
(191,0,l),
(387,550,l),
(355,550,l)
);
},
{
closed = 1;
nodes = (
(557,28,l),
(571,28,l),
(387,550,l),
(355,550,l),
(551,0,l),
(577,0,l),
(673,600,l),
(641,600,l)
);
}
);
width = 742;
},
{
associatedMasterId = m01;
layerId = "C125E802-ECA4-4EAD-B507-31F81B515710";
name = "Basic Structure";
shapes = (
{
closed = 1;
nodes = (
(230,28,l),
(244,28,l),
(130,600,l),
(98,600,l),
(224,0,l),
(250,0,l),
(456,600,l),
(424,600,l)
);
},
{
closed = 1;
nodes = (
(636,28,l),
(650,28,l),
(456,600,l),
(424,600,l),
(630,0,l),
(656,0,l),
(782,600,l),
(750,600,l)
);
}
);
width = 800;
},
{
associatedMasterId = m01;
hints = (
{
name = _corner.serifTopRight;
options = 1;
origin = (0,3);
scale = (0.9,1);
type = Corner;
},
{
name = _corner.serifTopLeft;
origin = (0,2);
type = Corner;
},
{
name = _corner.serifTopRight;
options = 1;
origin = (1,7);
type = Corner;
},
{
name = _corner.serifTopLeft;
origin = (1,6);
scale = (0.9,1);
type = Corner;
}
);
layerId = "9C64F350-A3ED-4A5D-8433-15E2D358FEE6";
name = "Ver 1";
shapes = (
{
closed = 1;
nodes = (
(171,28,l),
(185,28,l),
(101,600,l),
(69,600,l),
(165,0,l),
(191,0,l),
(387,550,l),
(355,550,l)
);
},
{
closed = 1;
nodes = (
(557,28,l),
(571,28,l),
(387,550,l),
(355,550,l),
(551,0,l),
(577,0,l),
(673,600,l),
(641,600,l)
);
}
);
width = 742;
},
{
associatedMasterId = m01;
hints = (
{
name = _corner.serifTopRight;
options = 1;
origin = (1,4);
scale = (0.9,1);
type = Corner;
},
{
name = _corner.serifTopLeft;
origin = (1,3);
type = Corner;
},
{
name = _corner.serifTopRight;
options = 1;
origin = (0,7);
type = Corner;
},
{
name = _corner.serifTopLeft;
origin = (0,6);
scale = (0.9,1);
type = Corner;
}
);
layerId = "030B4EF9-912A-4DD0-93B4-FC0C25EB9196";
name = "Ver 2 (bad)";
shapes = (
{
closed = 1;
nodes = (
(557,28,l),
(571,28,l),
(356,554,l),
(324,554,l),
(551,0,l),
(577,0,l),
(673,600,l),
(641,600,l)
);
},
{
closed = 1;
nodes = (
(371,483,l),
(171,28,l),
(185,28,l),
(101,600,l),
(69,600,l),
(165,0,l),
(191,0,l),
(388,446,l)
);
}
);
width = 742;
}
);
metricLeft = n;
metricRight = n;
unicode = 119;
},
{
glyphname = x;
lastChange = "2021-11-09 15:11:14 +0000";
layers = (
{
hints = (
{
name = _corner.serifTopLeft;
origin = (1,0);
scale = (0.8,1);
type = Corner;
},
{
name = _corner.serifTopRight;
options = 1;
origin = (0,1);
scale = (0.8,1);
type = Corner;
},
{
name = _corner.serifBottomRight;
origin = (1,2);
scale = (0.8,1);
type = Corner;
},
{
name = _corner.serifBottomLeft;
options = 1;
origin = (0,3);
scale = (0.8,1);
type = Corner;
},
{
name = _corner.serifTopLeft;
origin = (0,0);
type = Corner;
},
{
name = _corner.serifTopRight;
options = 1;
origin = (1,1);
type = Corner;
},
{
name = _corner.serifBottomLeft;
options = 1;
origin = (1,3);
type = Corner;
},
{
name = _corner.serifBottomRight;
origin = (0,2);
type = Corner;
}
);
layerId = m01;
shapes = (
{
closed = 1;
nodes = (
(108.597,600,l),
(73.403,600,l),
(468.403,0,l),
(503.597,0,l)
);
},
{
closed = 1;
nodes = (
(493.597,600,l),
(458.403,600,l),
(63.403,0,l),
(98.597,0,l)
);
}
);
width = 567;
},
{
associatedMasterId = m01;
layerId = "CAE7CCA0-36F2-46F7-9890-1C09DC202E33";
name = Skeleton;
shapes = (
{
attr = {
lineCapEnd = 4;
lineCapStart = 4;
strokeHeight = 28;
strokeWidth = 30;
};
closed = 0;
nodes = (
(91,600,l),
(486,0,l)
);
},
{
attr = {
lineCapEnd = 4;
lineCapStart = 4;
strokeHeight = 28;
strokeWidth = 30;
};
closed = 0;
nodes = (
(476,600,l),
(81,0,l)
);
}
);
width = 600;
}
);
metricLeft = n;
metricRight = n;
unicode = 120;
},
{
glyphname = y;
lastChange = "2021-11-11 17:17:13 +0000";
layers = (
{
hints = (
{
name = _corner.serifTopLeft;
origin = (0,15);
type = Corner;
}
);
layerId = m01;
shapes = (
{
closed = 1;
nodes = (
(104,600,l),
(104,199,ls),
(104,104,o),
(137,20,o),
(229,20,cs),
(364,20,o),
(438,201,o),
(438,354,c),
(459,356,l),
(454,194,o),
(384,-8,o),
(229,-8,cs),
(116,-8,o),
(74,96,o),
(74,199,cs),
(74,600,l)
);
},
{
closed = 1;
nodes = (
(468,-104,o),
(423,-208,o),
(273,-208,c),
(178,-208,o),
(101,-165,o),
(66,-101,c),
(92,-87,l),
(123,-144,o),
(187,-180,o),
(273,-180,c),
(402,-180,o),
(438,-96,o),
(438,0,cs),
(438,600,l),
(468,600,l),
(468,0,ls)
);
}
);
width = 533;
}
);
metricLeft = n;
unicode = 121;
},
{
glyphname = z;
lastChange = "2021-11-11 18:43:13 +0000";
layers = (
{
hints = (
{
name = _corner.serifTopRight;
origin = (0,5);
type = Corner;
},
{
name = _corner.serifTopRight;
origin = (0,11);
type = Corner;
}
);
layerId = m01;
shapes = (
{
closed = 1;
nodes = (
(50,28,l),
(50,15,l),
(415,577,l),
(415,600,l),
(40,600,l),
(40,572,l),
(385,572,l),
(385,585,l),
(20,23,l),
(20,0,l),
(425,0,l),
(425,28,l)
);
}
);
width = 445;
},
{
associatedMasterId = m01;
layerId = "6D7659F7-B86F-43FF-A5AB-7A04BAE1E700";
name = Skeleton;
shapes = (
{
attr = {
strokeHeight = 28;
strokeWidth = 30;
};
closed = 0;
nodes = (
(123,586,l),
(498,586,l),
(498,581,l),
(123,19,l),
(123,14,l),
(498,14,l)
);
}
);
width = 600;
}
);
metricLeft = o;
metricRight = o;
unicode = 122;
},
{
glyphname = a.ss01;
lastChange = "2021-11-11 18:43:13 +0000";
layers = (
{
hints = (
{
name = _corner.serifBottomRight;
origin = (1,3);
type = Corner;
}
);
layerId = m01;
shapes = (
{
closed = 1;
nodes = (
(408,487,l),
(363,553,o),
(292,580,o),
(230,580,cs),
(117,580,o),
(50,487,o),
(50,288,cs),
(50,131,o),
(92,20,o),
(196,20,cs),
(339,20,o),
(405,227,o),
(405,383,c),
(426,383,l),
(414,208,o),
(363,-8,o),
(196,-8,cs),
(69,-8,o),
(20,124,o),
(20,288,cs),
(20,497,o),
(99,608,o),
(230,608,cs),
(299,608,o),
(377,576,o),
(422,503,c)
);
},
{
closed = 1;
nodes = (
(405,0,l),
(405,600,l),
(435,600,l),
(435,0,l)
);
}
);
width = 509;
}
);
metricLeft = o;
metricRight = n;
},
{
glyphname = g.ss01;
lastChange = "2021-11-11 18:43:13 +0000";
layers = (
{
layerId = m01;
shapes = (
{
closed = 1;
nodes = (
(59,-87,l),
(90,-144,o),
(154,-180,o),
(240,-180,cs),
(369,-180,o),
(405,-96,o),
(405,0,cs),
(405,600,l),
(435,600,l),
(435,0,ls),
(435,-104,o),
(390,-208,o),
(240,-208,cs),
(145,-208,o),
(68,-165,o),
(33,-101,c)
);
},
{
closed = 1;
nodes = (
(408,487,l),
(363,553,o),
(292,580,o),
(230,580,cs),
(117,580,o),
(50,487,o),
(50,288,cs),
(50,131,o),
(92,20,o),
(196,20,cs),
(339,20,o),
(405,227,o),
(405,383,c),
(426,383,l),
(414,208,o),
(363,-8,o),
(196,-8,cs),
(69,-8,o),
(20,124,o),
(20,288,cs),
(20,497,o),
(99,608,o),
(230,608,cs),
(299,608,o),
(377,576,o),
(422,503,c)
);
}
);
width = 455;
}
);
metricLeft = o;
metricRight = o;
},
{
glyphname = f_f.liga;
lastChange = "2021-11-11 20:33:37 +0000";
layers = (
{
hints = (
{
name = _corner.serifBottomLeft;
origin = (1,8);
type = Corner;
},
{
name = _corner.serifBottomRight;
origin = (1,7);
type = Corner;
},
{
name = _corner.serifBottomLeft;
origin = (1,8);
type = Corner;
}
);
layerId = m01;
shapes = (
{
closed = 1;
nodes = (
(210,456,l),
(25,456,l),
(25,484,l),
(210,484,l)
);
},
{
closed = 1;
nodes = (
(395,727,l),
(345,769,o),
(284,780,o),
(248,780,cs),
(123,780,o),
(109,643,o),
(109,470,cs),
(109,0,l),
(79,0,l),
(79,470,ls),
(79,652,o),
(103,808,o),
(248,808,cs),
(292,808,o),
(359,794,o),
(409,750,c)
);
},
{
pos = (269,0);
ref = f;
}
);
width = 558;
}
);
metricLeft = f;
metricRight = f;
},
{
glyphname = f_i.liga;
lastChange = "2021-11-11 20:33:37 +0000";
layers = (
{
hints = (
{
name = _corner.serifBottomLeft;
origin = (1,0);
type = Corner;
},
{
name = _corner.serifTopLeft;
origin = (1,1);
type = Corner;
},
{
name = _corner.serifBottomRight;
origin = (1,3);
type = Corner;
},
{
name = _corner.serifBottomRight;
origin = (3,7);
type = Corner;
},
{
name = _corner.serifBottomLeft;
origin = (3,8);
type = Corner;
}
);
layerId = m01;
shapes = (
{
closed = 1;
nodes = (
(210,456,l),
(25,456,l),
(25,484,l),
(210,484,l)
);
},
{
closed = 1;
nodes = (
(368,0,l),
(368,600,l),
(398,600,l),
(398,0,l)
);
},
{
closed = 1;
nodes = (
(356,720,o),
(337,738,o),
(337,760,cs),
(337,782,o),
(356,800,o),
(377,800,cs),
(402,800,o),
(417,782,o),
(417,760,cs),
(417,738,o),
(402,720,o),
(377,720,cs)
);
},
{
closed = 1;
nodes = (
(377,720,l),
(321,720,o),
(315,780,o),
(249,780,cs),
(123,780,o),
(109,643,o),
(109,470,cs),
(109,0,l),
(79,0,l),
(79,470,ls),
(79,652,o),
(103,808,o),
(249,808,cs),
(303,808,o),
(311,800,o),
(377,800,c)
);
}
);
width = 497;
}
);
metricLeft = f;
metricRight = i;
},
{
glyphname = f_j.liga;
lastChange = "2021-11-11 20:33:37 +0000";
layers = (
{
hints = (
{
name = _corner.serifBottomLeft;
origin = (1,8);
type = Corner;
},
{
name = _corner.serifBottomRight;
origin = (1,7);
type = Corner;
},
{
name = _corner.serifBottomLeft;
origin = (1,8);
type = Corner;
},
{
name = _corner.serifTopLeft;
origin = (2,7);
type = Corner;
}
);
layerId = m01;
shapes = (
{
closed = 1;
nodes = (
(210,456,l),
(25,456,l),
(25,484,l),
(210,484,l)
);
},
{
closed = 1;
nodes = (
(418,720,l),
(362,720,o),
(315,780,o),
(249,780,cs),
(123,780,o),
(109,643,o),
(109,470,cs),
(109,0,l),
(79,0,l),
(79,470,ls),
(79,652,o),
(103,808,o),
(249,808,cs),
(303,808,o),
(352,800,o),
(418,800,c)
);
},
{
closed = 1;
nodes = (
(165,-79,l),
(174,-130,o),
(214,-165,o),
(262,-165,cs),
(341,-165,o),
(409,-69,o),
(409,131,cs),
(409,600,l),
(439,600,l),
(439,131,ls),
(439,-79,o),
(360,-193,o),
(262,-193,cs),
(195,-193,o),
(147,-140,o),
(139,-83,c)
);
},
{
closed = 1;
nodes = (
(397,720,o),
(378,738,o),
(378,760,cs),
(378,782,o),
(397,800,o),
(418,800,cs),
(443,800,o),
(458,782,o),
(458,760,cs),
(458,738,o),
(443,720,o),
(418,720,cs)
);
}
);
width = 503;
},
{
associatedMasterId = m01;
hints = (
{
name = _corner.serifBottomLeft;
origin = (1,8);
type = Corner;
},
{
name = _corner.serifBottomRight;
origin = (1,7);
type = Corner;
},
{
name = _corner.serifBottomLeft;
origin = (1,8);
type = Corner;
},
{
name = _corner.serifTopLeft;
origin = (2,7);
type = Corner;
}
);
layerId = "20476318-74D3-455F-AA73-DA97F4D25A54";
name = "Aug 14, 21, 21:47";
shapes = (
{
closed = 1;
nodes = (
(205,456,l),
(20,456,l),
(20,484,l),
(205,484,l)
);
},
{
closed = 1;
nodes = (
(398,745,l),
(358,771,o),
(310,780,o),
(274,780,cs),
(118,780,o),
(104,643,o),
(104,470,cs),
(104,0,l),
(74,0,l),
(74,470,ls),
(74,652,o),
(98,808,o),
(274,808,cs),
(318,808,o),
(373,794,o),
(417,765,c)
);
},
{
closed = 1;
nodes = (
(160,-79,l),
(169,-130,o),
(209,-165,o),
(257,-165,cs),
(336,-165,o),
(404,-69,o),
(404,131,cs),
(404,600,l),
(434,600,l),
(434,131,ls),
(434,-79,o),
(355,-193,o),
(257,-193,cs),
(190,-193,o),
(142,-140,o),
(134,-83,c)
);
},
{
closed = 1;
nodes = (
(392,702,o),
(373,720,o),
(373,742,cs),
(373,764,o),
(392,782,o),
(413,782,cs),
(434,782,o),
(453,764,o),
(453,742,cs),
(453,720,o),
(434,702,o),
(413,702,cs)
);
}
);
width = 498;
}
);
metricLeft = f;
metricRight = j;
},
{
glyphname = h_a_h_a_h_a.liga;
lastChange = "2021-11-11 19:23:46 +0000";
layers = (
{
layerId = m01;
shapes = (
{
attr = {
strokeHeight = 25;
strokeWidth = 28;
};
closed = 0;
nodes = (
(772,-2,l),
(772,387,o),
(731,794,o),
(375,794,cs),
(212,794,o),
(34,718,o),
(34,600,c),
(127,556,o),
(354,514,o),
(460,562,c),
(460,480,o),
(401,331,o),
(108,331,c),
(108,329,l),
(297,230,l)
);
},
{
attr = {
strokeHeight = 25;
strokeWidth = 28;
};
closed = 0;
nodes = (
(761,273,l),
(789,293,o),
(866,334,o),
(866,391,cs),
(866,461,o),
(749,534,o),
(697,553,c)
);
},
{
attr = {
strokeHeight = 25;
strokeWidth = 28;
};
closed = 0;
nodes = (
(115,673,l),
(152,676,o),
(196,675,o),
(237,668,c),
(239,670,l),
(216,688,o),
(189,709,o),
(162,725,c)
);
},
{
attr = {
strokeHeight = 25;
strokeWidth = 28;
};
closed = 0;
nodes = (
(454,640,l),
(418,659,o),
(375,667,o),
(335,675,c),
(334,677,l),
(360,696,o),
(398,718,o),
(446,718,c)
);
},
{
attr = {
strokeHeight = 25;
strokeWidth = 28;
};
closed = 0;
nodes = (
(603,222,l),
(609,205,o),
(609,183,o),
(592,175,cs),
(559,159,o),
(460,196,o),
(460,124,cs),
(460,86,o),
(488,62,o),
(539,62,cs),
(579,62,o),
(625,77,o),
(646,115,cs)
);
},
{
attr = {
strokeHeight = 25;
strokeWidth = 28;
};
closed = 1;
nodes = (
(287,167,o),
(287,191,o),
(288,219,c),
(251,198,o),
(238,159,o),
(238,130,cs),
(238,76,o),
(283,63,o),
(321,63,cs),
(342,63,o),
(381,67,o),
(381,108,cs),
(381,130,o),
(370,149,o),
(347,149,cs),
(333,149,o),
(308,134,o),
(297,151,c)
);
},
{
attr = {
strokeHeight = 25;
strokeWidth = 28;
};
closed = 0;
nodes = (
(288,62,l),
(289,31,o),
(290,9,o),
(290,-2,cs)
);
}
);
width = 900;
}
);
metricLeft = h;
metricRight = a;
},
{
glyphname = o_o.liga;
lastChange = "2021-11-11 18:43:13 +0000";
layers = (
{
layerId = m01;
shapes = (
{
closed = 1;
nodes = (
(157,20,o),
(50,142,o),
(50,308,c),
(50,473,o),
(157,586,o),
(329,586,c),
(501,586,o),
(608,473,o),
(608,308,c),
(608,141,o),
(501,20,o),
(329,20,c)
);
},
{
closed = 1;
nodes = (
(517,-8,o),
(638,129,o),
(638,308,c),
(638,485,o),
(517,614,o),
(329,614,c),
(141,614,o),
(20,485,o),
(20,308,c),
(20,130,o),
(141,-8,o),
(329,-8,c)
);
},
{
closed = 1;
nodes = (
(745,20,o),
(638,142,o),
(638,308,c),
(638,473,o),
(745,586,o),
(917,586,c),
(1089,586,o),
(1196,473,o),
(1196,308,c),
(1196,141,o),
(1089,20,o),
(917,20,c)
);
},
{
closed = 1;
nodes = (
(1105,-8,o),
(1226,129,o),
(1226,308,c),
(1226,485,o),
(1105,614,o),
(917,614,c),
(729,614,o),
(608,485,o),
(608,308,c),
(608,130,o),
(729,-8,o),
(917,-8,c)
);
},
{
closed = 1;
nodes = (
(509,206,o),
(497,219,o),
(497,236,cs),
(497,253,o),
(510,266,o),
(527,266,cs),
(544,266,o),
(557,253,o),
(557,236,cs),
(557,219,o),
(544,206,o),
(527,206,cs)
);
},
{
closed = 1;
nodes = (
(538,145,o),
(580,193,o),
(580,253,cs),
(580,312,o),
(538,360,o),
(486,360,cs),
(434,360,o),
(392,312,o),
(392,253,cs),
(392,193,o),
(434,145,o),
(486,145,cs)
);
},
{
closed = 1;
nodes = (
(1094,206,o),
(1082,219,o),
(1082,236,cs),
(1082,253,o),
(1095,266,o),
(1112,266,cs),
(1129,266,o),
(1142,253,o),
(1142,236,cs),
(1142,219,o),
(1129,206,o),
(1112,206,cs)
);
},
{
closed = 1;
nodes = (
(1123,145,o),
(1165,193,o),
(1165,253,cs),
(1165,312,o),
(1123,360,o),
(1071,360,cs),
(1019,360,o),
(977,312,o),
(977,253,cs),
(977,193,o),
(1019,145,o),
(1071,145,cs)
);
}
);
width = 1246;
},
{
associatedMasterId = m01;
layerId = "DB30A0B3-791D-4595-B027-1B8EA4C8FBDA";
name = "Jul 29, 21, 13:51";
shapes = (
{
closed = 1;
nodes = (
(157.091,20,o),
(50,141.99,o),
(50,308,c),
(50,472.731,o),
(156.77,586,o),
(329,586,c),
(501.23,586,o),
(608,472.731,o),
(608,308,c),
(608,141.02,o),
(500.944,20,o),
(329,20,c)
);
},
{
closed = 1;
nodes = (
(517.056,-8,o),
(638,128.98,o),
(638,308,c),
(638,485.269,o),
(516.77,614,o),
(329,614,c),
(141.23,614,o),
(20,485.269,o),
(20,308,c),
(20,130.01,o),
(140.909,-8,o),
(329,-8,c)
);
},
{
closed = 1;
nodes = (
(745.091,20,o),
(638,141.99,o),
(638,308,c),
(638,472.731,o),
(744.77,586,o),
(917,586,c),
(1089.23,586,o),
(1196,472.731,o),
(1196,308,c),
(1196,141.02,o),
(1088.944,20,o),
(917,20,c)
);
},
{
closed = 1;
nodes = (
(1105.056,-8,o),
(1226,128.98,o),
(1226,308,c),
(1226,485.269,o),
(1104.77,614,o),
(917,614,c),
(729.23,614,o),
(608,485.269,o),
(608,308,c),
(608,130.01,o),
(728.909,-8,o),
(917,-8,c)
);
},
{
closed = 1;
nodes = (
(514,206,o),
(502,219,o),
(502,236,cs),
(502,253,o),
(515,266,o),
(532,266,cs),
(549,266,o),
(562,253,o),
(562,236,cs),
(562,219,o),
(549,206,o),
(532,206,cs)
);
},
{
closed = 1;
nodes = (
(565,100,o),
(625,168,o),
(625,253,cs),
(625,337,o),
(565,405,o),
(491,405,cs),
(417,405,o),
(357,337,o),
(357,253,cs),
(357,168,o),
(417,100,o),
(491,100,cs)
);
}
);
width = 1246;
},
{
associatedMasterId = m01;
layerId = "7AB50372-4B99-4556-B7C1-483B583DB275";
name = "Jul 30, 21, 01:26";
shapes = (
{
closed = 1;
nodes = (
(162,20,o),
(55,142,o),
(55,308,c),
(55,473,o),
(162,586,o),
(334,586,c),
(506,586,o),
(613,473,o),
(613,308,c),
(613,141,o),
(506,20,o),
(334,20,c)
);
},
{
closed = 1;
nodes = (
(522,-8,o),
(643,129,o),
(643,308,c),
(643,485,o),
(522,614,o),
(334,614,c),
(146,614,o),
(25,485,o),
(25,308,c),
(25,130,o),
(146,-8,o),
(334,-8,c)
);
},
{
closed = 1;
nodes = (
(750,20,o),
(643,142,o),
(643,308,c),
(643,473,o),
(750,586,o),
(922,586,c),
(1094,586,o),
(1201,473,o),
(1201,308,c),
(1201,141,o),
(1094,20,o),
(922,20,c)
);
},
{
closed = 1;
nodes = (
(1110,-8,o),
(1231,129,o),
(1231,308,c),
(1231,485,o),
(1110,614,o),
(922,614,c),
(734,614,o),
(613,485,o),
(613,308,c),
(613,130,o),
(734,-8,o),
(922,-8,c)
);
},
{
closed = 1;
nodes = (
(514,206,o),
(502,219,o),
(502,236,cs),
(502,253,o),
(515,266,o),
(532,266,cs),
(549,266,o),
(562,253,o),
(562,236,cs),
(562,219,o),
(549,206,o),
(532,206,cs)
);
},
{
closed = 1;
nodes = (
(543,145,o),
(585,193,o),
(585,253,cs),
(585,312,o),
(543,360,o),
(491,360,cs),
(439,360,o),
(397,312,o),
(397,253,cs),
(397,193,o),
(439,145,o),
(491,145,cs)
);
},
{
closed = 1;
nodes = (
(1099,206,o),
(1087,219,o),
(1087,236,cs),
(1087,253,o),
(1100,266,o),
(1117,266,cs),
(1134,266,o),
(1147,253,o),
(1147,236,cs),
(1147,219,o),
(1134,206,o),
(1117,206,cs)
);
},
{
closed = 1;
nodes = (
(1128,145,o),
(1170,193,o),
(1170,253,cs),
(1170,312,o),
(1128,360,o),
(1076,360,cs),
(1024,360,o),
(982,312,o),
(982,253,cs),
(982,193,o),
(1024,145,o),
(1076,145,cs)
);
},
{
attr = {
strokeHeight = 28;
strokeWidth = 30;
};
closed = 0;
nodes = (
(57,558,l),
(94,606,o),
(123,625,o),
(174,637,cs)
);
},
{
attr = {
strokeHeight = 28;
strokeWidth = 30;
};
closed = 0;
nodes = (
(1194,558,l),
(1157,606,o),
(1128,625,o),
(1077,637,cs)
);
}
);
width = 1256;
}
);
metricLeft = o;
metricRight = o;
},
{
glyphname = hyphen;
lastChange = "2021-11-10 08:28:30 +0000";
layers = (
{
layerId = m01;
shapes = (
{
attr = {
strokeHeight = 28;
strokeWidth = 30;
};
closed = 0;
nodes = (
(45,308,l),
(321,308,l)
);
}
);
width = 366;
}
);
unicode = 45;
},
{
export = 0;
glyphname = _corner.serifBottomLeft;
lastChange = "2021-07-29 05:03:24 +0000";
layers = (
{
associatedMasterId = m01;
layerId = "7C782852-DF6F-45AA-BD1F-5BD1356A0577";
name = "Thiccccc square";
shapes = (
{
closed = 0;
nodes = (
(17,0,l),
(-64,0,l),
(-64,130,l),
(-47,130,o),
(-16,130,o),
(0,130,cs)
);
}
);
width = 200;
},
{
layerId = m01;
name = Regular;
shapes = (
{
closed = 0;
nodes = (
(17,0,l),
(-54,0,l),
(-54,18,l),
(0,22,l)
);
}
);
width = 200;
},
{
associatedMasterId = m01;
layerId = "E4668C50-90AD-4614-AB27-E6BC1B040710";
name = Thicker;
shapes = (
{
closed = 0;
nodes = (
(17,0,l),
(-54,0,l),
(-54,20,l),
(-37,20,o),
(0,21,o),
(0,37,cs)
);
}
);
width = 200;
},
{
associatedMasterId = m01;
layerId = "45D3DFC8-1B49-4CA8-BA11-CC40C40FFBBE";
name = Thinner;
shapes = (
{
closed = 0;
nodes = (
(17,0,l),
(-54,0,l),
(-54,18,l),
(-37,18,o),
(0,18,o),
(0,23,c)
);
}
);
width = 200;
}
);
},
{
export = 0;
glyphname = _corner.serifBottomRight;
lastChange = "2021-07-29 05:42:54 +0000";
layers = (
{
associatedMasterId = m01;
layerId = "7C782852-DF6F-45AA-BD1F-5BD1356A0577";
name = "Thiccccc square";
shapes = (
{
closed = 0;
nodes = (
(17,0,l),
(-64,0,l),
(-64,130,l),
(-47,130,o),
(-16,130,o),
(0,130,cs)
);
}
);
width = 200;
},
{
layerId = m01;
name = Regular;
shapes = (
{
closed = 0;
nodes = (
(0,22,l),
(54,18,l),
(54,0,l),
(-17,0,l)
);
}
);
width = 200;
},
{
associatedMasterId = m01;
layerId = "E4668C50-90AD-4614-AB27-E6BC1B040710";
name = Thicker;
shapes = (
{
closed = 0;
nodes = (
(17,0,l),
(-54,0,l),
(-54,20,l),
(-37,20,o),
(0,21,o),
(0,37,cs)
);
}
);
width = 200;
},
{
associatedMasterId = m01;
layerId = "45D3DFC8-1B49-4CA8-BA11-CC40C40FFBBE";
name = Thinner;
shapes = (
{
closed = 0;
nodes = (
(17,0,l),
(-54,0,l),
(-54,18,l),
(-37,18,o),
(0,18,o),
(0,23,c)
);
}
);
width = 200;
}
);
},
{
export = 0;
glyphname = _corner.serifTopLeft;
lastChange = "2021-07-29 05:00:01 +0000";
layers = (
{
associatedMasterId = m01;
layerId = "7C782852-DF6F-45AA-BD1F-5BD1356A0577";
name = "Thiccccc square";
shapes = (
{
closed = 0;
nodes = (
(17,0,l),
(-64,0,l),
(-64,130,l),
(-47,130,o),
(-16,130,o),
(0,130,cs)
);
}
);
width = 200;
},
{
layerId = m01;
name = Regular;
shapes = (
{
closed = 0;
nodes = (
(0,-22,l),
(-54,-18,l),
(-54,0,l),
(17,0,l)
);
}
);
width = 200;
},
{
associatedMasterId = m01;
layerId = "E4668C50-90AD-4614-AB27-E6BC1B040710";
name = Thicker;
shapes = (
{
closed = 0;
nodes = (
(17,0,l),
(-54,0,l),
(-54,20,l),
(-37,20,o),
(0,21,o),
(0,37,cs)
);
}
);
width = 200;
},
{
associatedMasterId = m01;
layerId = "45D3DFC8-1B49-4CA8-BA11-CC40C40FFBBE";
name = Thinner;
shapes = (
{
closed = 0;
nodes = (
(17,0,l),
(-54,0,l),
(-54,18,l),
(-37,18,o),
(0,18,o),
(0,23,c)
);
}
);
width = 200;
}
);
},
{
export = 0;
glyphname = _corner.serifTopRight;
lastChange = "2021-07-29 05:43:24 +0000";
layers = (
{
associatedMasterId = m01;
layerId = "7C782852-DF6F-45AA-BD1F-5BD1356A0577";
name = "Jul 29, 21, 10:52";
shapes = (
{
closed = 0;
nodes = (
(17,0,l),
(-64,0,l),
(-64,130,l),
(-47,130,o),
(-16,130,o),
(0,130,cs)
);
}
